<svg width="35" height="35" viewBox="0 0 35 35" fill="none" xmlns="http://www.w3.org/2000/svg">
<g id="carbon:notification">
<path id="Vector" d="M31.3983 21.1017L28.4375 18.1409V14.2188C28.4341 11.5083 27.4258 8.8953 25.6076 6.88514C23.7893 4.87497 21.2903 3.61039 18.5938 3.33594V1.09375H16.4062V3.33594C13.7097 3.61039 11.2107 4.87497 9.39243 6.88514C7.57419 8.8953 6.56589 11.5083 6.5625 14.2188V18.1409L3.60172 21.1017C3.39659 21.3068 3.28131 21.5849 3.28125 21.875V25.1562C3.28125 25.4463 3.39648 25.7245 3.6016 25.9296C3.80672 26.1348 4.08492 26.25 4.375 26.25H12.0312V27.0998C12.0075 28.4874 12.4965 29.835 13.4048 30.8843C14.313 31.9336 15.5765 32.6108 16.9531 32.7862C17.7135 32.8617 18.4812 32.7771 19.2069 32.538C19.9326 32.2989 20.6002 31.9105 21.1668 31.3979C21.7334 30.8853 22.1865 30.2597 22.4968 29.5615C22.8071 28.8633 22.9679 28.1078 22.9688 27.3438V26.25H30.625C30.9151 26.25 31.1933 26.1348 31.3984 25.9296C31.6035 25.7245 31.7188 25.4463 31.7188 25.1562V21.875C31.7187 21.5849 31.6034 21.3068 31.3983 21.1017ZM20.7812 27.3438C20.7812 28.214 20.4355 29.0486 19.8202 29.6639C19.2048 30.2793 18.3702 30.625 17.5 30.625C16.6298 30.625 15.7952 30.2793 15.1798 29.6639C14.5645 29.0486 14.2188 28.214 14.2188 27.3438V26.25H20.7812V27.3438ZM29.5312 24.0625H5.46875V22.3278L8.42953 19.367C8.63466 19.162 8.74994 18.8838 8.75 18.5938V14.2188C8.75 11.8981 9.67187 9.67251 11.3128 8.03157C12.9538 6.39062 15.1794 5.46875 17.5 5.46875C19.8206 5.46875 22.0462 6.39062 23.6872 8.03157C25.3281 9.67251 26.25 11.8981 26.25 14.2188V18.5938C26.2501 18.8838 26.3653 19.162 26.5705 19.367L29.5312 22.3278V24.0625Z" fill="black"/>
</g>
</svg>
