<svg width="35" height="35" viewBox="0 0 35 35" fill="none" xmlns="http://www.w3.org/2000/svg">
<g id="clarity:arrow-line" clip-path="url(#clip0_6_100)">
<path id="Vector" d="M15.1764 8.10836L5.83333 17.5L15.1764 26.8917C15.2608 27.0025 15.368 27.0939 15.4907 27.1597C15.6135 27.2254 15.749 27.2641 15.888 27.2729C16.027 27.2818 16.1662 27.2607 16.2964 27.2111C16.4265 27.1614 16.5444 27.0844 16.6422 26.9852C16.74 26.886 16.8153 26.767 16.8631 26.6362C16.9109 26.5053 16.93 26.3658 16.9191 26.2269C16.9083 26.0881 16.8677 25.9532 16.8002 25.8314C16.7327 25.7095 16.6398 25.6036 16.5278 25.5209L9.5375 18.4722H28.1361C28.394 18.4722 28.6412 18.3698 28.8236 18.1875C29.0059 18.0052 29.1083 17.7579 29.1083 17.5C29.1083 17.2422 29.0059 16.9949 28.8236 16.8126C28.6412 16.6302 28.394 16.5278 28.1361 16.5278H9.5375L16.5278 9.47919C16.7096 9.29612 16.8112 9.04833 16.8103 8.79034C16.8093 8.53234 16.706 8.28528 16.5229 8.1035C16.3398 7.92171 16.0921 7.8201 15.8341 7.82101C15.5761 7.82192 15.329 7.92529 15.1472 8.10836H15.1764Z" fill="black"/>
</g>
<defs>
<clipPath id="clip0_6_100">
<rect width="35" height="35" fill="white" transform="matrix(0 -1 1 0 0 35)"/>
</clipPath>
</defs>
</svg>
