<svg width="15" height="15" viewBox="0 0 15 15" fill="none" xmlns="http://www.w3.org/2000/svg">
<g id="eva:pin-outline">
<g id="evaPinOutline0">
<g id="evaPinOutline1">
<g id="evaPinOutline2">
<path id="Vector" d="M7.5 1.25C6.18254 1.24993 4.91828 1.76985 3.98203 2.69674C3.04577 3.62364 2.51317 4.8826 2.5 6.2C2.5 9.625 6.90625 13.4375 7.09375 13.6C7.20696 13.6968 7.35103 13.75 7.5 13.75C7.64897 13.75 7.79304 13.6968 7.90625 13.6C8.125 13.4375 12.5 9.625 12.5 6.2C12.4868 4.8826 11.9542 3.62364 11.018 2.69674C10.0817 1.76985 8.81746 1.24993 7.5 1.25ZM7.5 12.2812C6.45625 11.2875 3.75 8.53125 3.75 6.2C3.75 5.20544 4.14509 4.25161 4.84835 3.54835C5.55161 2.84509 6.50544 2.45 7.5 2.45C8.49456 2.45 9.44839 2.84509 10.1517 3.54835C10.8549 4.25161 11.25 5.20544 11.25 6.2C11.25 8.5125 8.54375 11.2875 7.5 12.2812Z" fill="black"/>
<path id="Vector_2" d="M7.5 3.75C7.06735 3.75 6.64442 3.87829 6.28469 4.11866C5.92496 4.35903 5.64458 4.70067 5.47901 5.10038C5.31345 5.50009 5.27013 5.93993 5.35453 6.36426C5.43894 6.78859 5.64728 7.17837 5.95321 7.4843C6.25913 7.79022 6.64891 7.99856 7.07324 8.08297C7.49757 8.16737 7.93741 8.12405 8.33712 7.95849C8.73683 7.79292 9.07848 7.51254 9.31884 7.15281C9.55921 6.79308 9.6875 6.37015 9.6875 5.9375C9.6875 5.35734 9.45703 4.80094 9.0468 4.3907C8.63656 3.98047 8.08016 3.75 7.5 3.75ZM7.5 6.875C7.31458 6.875 7.13333 6.82002 6.97915 6.717C6.82498 6.61399 6.70482 6.46757 6.63386 6.29627C6.56291 6.12496 6.54434 5.93646 6.58052 5.7546C6.61669 5.57275 6.70598 5.4057 6.83709 5.27459C6.9682 5.14348 7.13525 5.05419 7.3171 5.01801C7.49896 4.98184 7.68746 5.00041 7.85877 5.07136C8.03007 5.14232 8.17649 5.26248 8.2795 5.41665C8.38252 5.57082 8.4375 5.75208 8.4375 5.9375C8.4375 6.18614 8.33873 6.4246 8.16291 6.60041C7.9871 6.77623 7.74864 6.875 7.5 6.875Z" fill="black"/>
</g>
</g>
</g>
</g>
</svg>
