<svg width="30" height="30" viewBox="0 0 30 30" fill="none" xmlns="http://www.w3.org/2000/svg">
<g id="fluent:food-24-regular">
<path id="Vector" d="M22.8125 4.0625C23.039 4.06251 23.2579 4.14455 23.4287 4.29346C23.5994 4.44236 23.7104 4.64806 23.7412 4.8725L23.75 5V25C23.7499 25.2375 23.6597 25.4662 23.4975 25.6397C23.3354 25.8133 23.1134 25.9188 22.8764 25.935C22.6394 25.9512 22.4051 25.8769 22.2209 25.727C22.0366 25.5771 21.9161 25.3628 21.8837 25.1275L21.875 25V18.75H19.0625C18.836 18.75 18.6171 18.6679 18.4463 18.519C18.2756 18.3701 18.1646 18.1644 18.1337 17.94L18.125 17.8125V8.75C18.125 7.5068 18.6189 6.31451 19.4979 5.43544C20.377 4.55636 21.5693 4.0625 22.8125 4.0625ZM15.3125 4.0625C15.539 4.06251 15.7579 4.14455 15.9287 4.29346C16.0994 4.44236 16.2104 4.64806 16.2413 4.8725L16.25 5V10C16.25 12.4412 14.5 14.4725 12.1875 14.9125V25C12.1874 25.2375 12.0972 25.4662 11.935 25.6397C11.7729 25.8133 11.5509 25.9188 11.3139 25.935C11.0769 25.9512 10.8426 25.8769 10.6584 25.727C10.4741 25.5771 10.3536 25.3628 10.3212 25.1275L10.3125 25V14.9125C9.21346 14.7024 8.2166 14.1298 7.48128 13.2864C6.74596 12.443 6.31463 11.3774 6.25625 10.26L6.25 10V5C6.25007 4.76247 6.34031 4.53382 6.50247 4.36026C6.66463 4.1867 6.88662 4.08116 7.1236 4.06497C7.36058 4.04878 7.59487 4.12314 7.77912 4.27304C7.96338 4.42294 8.08387 4.63719 8.11625 4.8725L8.125 5V10C8.125 11.4 9.045 12.5837 10.3125 12.9825V5C10.3126 4.76247 10.4028 4.53382 10.565 4.36026C10.7271 4.1867 10.9491 4.08116 11.1861 4.06497C11.4231 4.04878 11.6574 4.12314 11.8416 4.27304C12.0259 4.42294 12.1464 4.63719 12.1788 4.8725L12.1875 5V12.9813C12.784 12.7933 13.3104 12.4308 13.6988 11.9405C14.0872 11.4503 14.3197 10.8549 14.3663 10.2313L14.375 10V5C14.375 4.75136 14.4738 4.5129 14.6496 4.33709C14.8254 4.16127 15.0639 4.0625 15.3125 4.0625ZM21.875 16.875V6.0975C21.3611 6.27936 20.9111 6.6065 20.5796 7.03919C20.2481 7.47189 20.0494 7.99152 20.0075 8.535L20 8.75V16.875H21.875Z" fill="black"/>
</g>
</svg>
