<svg width="35" height="35" viewBox="0 0 35 35" fill="none" xmlns="http://www.w3.org/2000/svg">
<g id="heroicons:user-group">
<path id="Vector" d="M24.8777 22.6348C25.5599 22.1689 26.3601 21.9057 27.1856 21.8756C28.0112 21.8456 28.8284 22.0498 29.5427 22.4648C30.257 22.8798 30.8392 23.4885 31.222 24.2205C31.6048 24.9526 31.7724 25.7781 31.7057 26.6015C29.9559 27.213 28.0974 27.451 26.25 27.3C26.2444 25.6472 25.7684 24.0286 24.8777 22.6363C24.0872 21.3964 22.9967 20.3759 21.7071 19.6693C20.4175 18.9627 18.9705 18.5928 17.5 18.5938C16.0298 18.593 14.5831 18.963 13.2938 19.6696C12.0045 20.3762 10.9142 21.3966 10.1238 22.6363M26.2486 27.2985L26.25 27.3438C26.25 27.6719 26.2325 27.9956 26.1961 28.315C23.5497 29.8333 20.551 30.6299 17.5 30.625C14.3354 30.625 11.3648 29.785 8.80399 28.315C8.76649 27.9775 8.74848 27.6381 8.75003 27.2985M8.75003 27.2985C6.90324 27.455 5.04573 27.2179 3.29732 26.6029C3.23075 25.7798 3.39852 24.9546 3.78124 24.2228C4.16395 23.491 4.74598 22.8824 5.46003 22.4675C6.17408 22.0526 6.99098 21.8482 7.81629 21.8781C8.64159 21.908 9.44159 22.1708 10.1238 22.6363M8.75003 27.2985C8.75527 25.6458 9.23365 24.0288 10.1238 22.6363M21.875 9.84375C21.875 11.0041 21.4141 12.1169 20.5936 12.9373C19.7732 13.7578 18.6604 14.2188 17.5 14.2188C16.3397 14.2188 15.2269 13.7578 14.4064 12.9373C13.586 12.1169 13.125 11.0041 13.125 9.84375C13.125 8.68343 13.586 7.57063 14.4064 6.75016C15.2269 5.92969 16.3397 5.46875 17.5 5.46875C18.6604 5.46875 19.7732 5.92969 20.5936 6.75016C21.4141 7.57063 21.875 8.68343 21.875 9.84375ZM30.625 14.2188C30.625 14.6497 30.5402 15.0763 30.3753 15.4744C30.2104 15.8725 29.9687 16.2343 29.664 16.5389C29.3593 16.8436 28.9976 17.0853 28.5995 17.2502C28.2014 17.4151 27.7747 17.5 27.3438 17.5C26.9129 17.5 26.4862 17.4151 26.0881 17.2502C25.69 17.0853 25.3283 16.8436 25.0236 16.5389C24.7189 16.2343 24.4772 15.8725 24.3123 15.4744C24.1474 15.0763 24.0625 14.6497 24.0625 14.2188C24.0625 13.3485 24.4082 12.5139 25.0236 11.8986C25.6389 11.2832 26.4735 10.9375 27.3438 10.9375C28.214 10.9375 29.0486 11.2832 29.664 11.8986C30.2793 12.5139 30.625 13.3485 30.625 14.2188ZM10.9375 14.2188C10.9375 14.6497 10.8527 15.0763 10.6878 15.4744C10.5229 15.8725 10.2812 16.2343 9.97647 16.5389C9.67178 16.8436 9.31006 17.0853 8.91196 17.2502C8.51386 17.4151 8.08718 17.5 7.65628 17.5C7.22538 17.5 6.7987 17.4151 6.4006 17.2502C6.0025 17.0853 5.64078 16.8436 5.33608 16.5389C5.03139 16.2343 4.7897 15.8725 4.6248 15.4744C4.4599 15.0763 4.37503 14.6497 4.37503 14.2188C4.37503 13.3485 4.72073 12.5139 5.33608 11.8986C5.95144 11.2832 6.78604 10.9375 7.65628 10.9375C8.52652 10.9375 9.36112 11.2832 9.97647 11.8986C10.5918 12.5139 10.9375 13.3485 10.9375 14.2188Z" stroke="black" stroke-width="1.5" stroke-linecap="round" stroke-linejoin="round"/>
</g>
</svg>
