<svg width="69" height="69" viewBox="0 0 69 69" fill="none" xmlns="http://www.w3.org/2000/svg">
<g id="iconoir:group">
<g id="Group">
<path id="Vector" d="M2.875 57.5V54.625C2.875 49.2875 4.99531 44.1686 8.76948 40.3945C12.5436 36.6203 17.6625 34.5 23 34.5C28.3375 34.5 33.4564 36.6203 37.2305 40.3945C41.0047 44.1686 43.125 49.2875 43.125 54.625V57.5" stroke="black" stroke-width="2.1875" stroke-linecap="round"/>
<path id="Vector_2" d="M37.375 40.25C37.375 36.4375 38.8895 32.7812 41.5853 30.0853C44.2812 27.3895 47.9375 25.875 51.75 25.875C53.6378 25.875 55.507 26.2468 57.2511 26.9692C58.9951 27.6916 60.5798 28.7505 61.9147 30.0853C63.2495 31.4202 64.3084 33.0049 65.0308 34.7489C65.7532 36.493 66.125 38.3622 66.125 40.25V41.6875" stroke="black" stroke-width="2.1875" stroke-linecap="round"/>
<path id="Vector_3" d="M23 34.5C26.05 34.5 28.9751 33.2884 31.1317 31.1317C33.2884 28.9751 34.5 26.05 34.5 23C34.5 19.95 33.2884 17.0249 31.1317 14.8683C28.9751 12.7116 26.05 11.5 23 11.5C19.95 11.5 17.0249 12.7116 14.8683 14.8683C12.7116 17.0249 11.5 19.95 11.5 23C11.5 26.05 12.7116 28.9751 14.8683 31.1317C17.0249 33.2884 19.95 34.5 23 34.5ZM51.75 25.875C54.0375 25.875 56.2313 24.9663 57.8488 23.3488C59.4663 21.7313 60.375 19.5375 60.375 17.25C60.375 14.9625 59.4663 12.7687 57.8488 11.1512C56.2313 9.5337 54.0375 8.625 51.75 8.625C49.4625 8.625 47.2687 9.5337 45.6512 11.1512C44.0337 12.7687 43.125 14.9625 43.125 17.25C43.125 19.5375 44.0337 21.7313 45.6512 23.3488C47.2687 24.9663 49.4625 25.875 51.75 25.875Z" stroke="black" stroke-width="2.1875" stroke-linecap="round" stroke-linejoin="round"/>
</g>
</g>
</svg>
