<svg width="25" height="25" viewBox="0 0 25 25" fill="none" xmlns="http://www.w3.org/2000/svg">
<g id="ph:google-logo-fill">
<path id="Vector" d="M12.5 2.34375C10.4913 2.34375 8.52768 2.9394 6.85749 4.05539C5.18731 5.17137 3.88556 6.75756 3.11685 8.61337C2.34815 10.4692 2.14702 12.5113 2.5389 14.4814C2.93079 16.4515 3.89807 18.2612 5.31845 19.6816C6.73883 21.1019 8.5485 22.0692 10.5186 22.4611C12.4887 22.853 14.5308 22.6519 16.3866 21.8832C18.2424 21.1144 19.8286 19.8127 20.9446 18.1425C22.0606 16.4723 22.6563 14.5087 22.6563 12.5C22.6563 9.8064 21.5862 7.22311 19.6816 5.31845C17.7769 3.41378 15.1936 2.34375 12.5 2.34375ZM12.5 20.3125C11.2337 20.3124 9.98634 20.0044 8.86546 19.4151C7.74458 18.8259 6.78373 17.973 6.06568 16.9299C5.34764 15.8868 4.8939 14.6848 4.74357 13.4275C4.59324 12.1701 4.7508 10.895 5.20271 9.71205C5.65461 8.52909 6.3873 7.47371 7.33767 6.63681C8.28804 5.79991 9.4276 5.20657 10.6582 4.9079C11.8888 4.60923 13.1736 4.61418 14.4019 4.92232C15.6301 5.23046 16.7651 5.83256 17.709 6.67676C17.8596 6.81593 17.9494 7.00872 17.9591 7.21354C17.9688 7.41836 17.8976 7.61879 17.7608 7.77157C17.6241 7.92435 17.4327 8.01724 17.2281 8.03019C17.0235 8.04315 16.8219 7.97513 16.667 7.84082C15.6254 6.90919 14.3017 6.3535 12.9072 6.26252C11.5127 6.17154 10.128 6.55052 8.9742 7.33891C7.8204 8.12731 6.9641 9.27964 6.54209 10.6118C6.12008 11.944 6.15671 13.3792 6.64612 14.6881C7.13553 15.9971 8.04949 17.1042 9.242 17.8327C10.4345 18.5613 11.8368 18.8691 13.2248 18.7071C14.6128 18.5451 15.9065 17.9227 16.8992 16.9391C17.8919 15.9556 18.5263 14.6677 18.7012 13.2812H12.5C12.2928 13.2812 12.0941 13.1989 11.9476 13.0524C11.8011 12.9059 11.7188 12.7072 11.7188 12.5C11.7188 12.2928 11.8011 12.0941 11.9476 11.9476C12.0941 11.8011 12.2928 11.7188 12.5 11.7188H19.5313C19.7385 11.7188 19.9372 11.8011 20.0837 11.9476C20.2302 12.0941 20.3125 12.2928 20.3125 12.5C20.3102 14.5713 19.4863 16.5571 18.0217 18.0217C16.5571 19.4863 14.5713 20.3102 12.5 20.3125Z" fill="black"/>
</g>
</svg>
