<svg width="30" height="30" viewBox="0 0 30 30" fill="none" xmlns="http://www.w3.org/2000/svg">
<g id="material-symbols:travel">
<path id="Vector" d="M8.5625 21.4375L4.5625 19.25L5.875 17.9375L9 18.375L13.875 13.5L4.125 8.1875L5.875 6.4375L17.8125 9.5L22.7187 4.65625C23.0729 4.30208 23.5158 4.125 24.0475 4.125C24.5792 4.125 25.0217 4.30208 25.375 4.65625C25.7292 5.01042 25.9063 5.45333 25.9063 5.985C25.9063 6.51667 25.7292 6.95917 25.375 7.3125L20.5 12.1875L23.5625 24.125L21.8125 25.875L16.5 16.125L11.625 21L12.0625 24.125L10.75 25.4375L8.5625 21.4375Z" fill="black"/>
</g>
</svg>
