<svg width="19" height="20" viewBox="0 0 19 20" fill="none" xmlns="http://www.w3.org/2000/svg">
<g id="mingcute:invite-fill">
<g clip-path="url(#clip0_564_820)">
<g id="Group">
<path id="Vector" d="M13.4443 2.5C14.0363 2.49996 14.6059 2.7436 15.0366 3.18107C15.4673 3.61854 15.7266 4.21676 15.7613 4.85333L15.7652 5V8.625L16.2247 8.405C16.6997 8.1775 17.2474 8.53 17.3078 9.07L17.3124 9.16667V15.8333C17.3125 16.2538 17.1651 16.6588 16.8997 16.9671C16.6343 17.2754 16.2705 17.4643 15.8812 17.4958L15.7652 17.5H3.38705C2.99669 17.5001 2.62071 17.3413 2.33448 17.0554C2.04825 16.7695 1.87293 16.3776 1.84365 15.9583L1.83978 15.8333V9.16667C1.83978 8.60667 2.36198 8.21083 2.84318 8.37083L2.92828 8.405L3.38705 8.625V5C3.38701 4.36232 3.6132 3.74874 4.01932 3.28478C4.42545 2.82083 4.98081 2.54158 5.57178 2.50417L5.70794 2.5H13.4443ZM13.4443 4.16667H5.70794C5.50276 4.16667 5.30599 4.25446 5.1609 4.41074C5.01582 4.56702 4.93431 4.77899 4.93431 5V9.36583L9.5761 11.5883L14.2179 9.36583V5C14.2179 4.77899 14.1364 4.56702 13.9913 4.41074C13.8462 4.25446 13.6494 4.16667 13.4443 4.16667ZM9.5761 6.66667C9.77328 6.6669 9.96294 6.74823 10.1063 6.89404C10.2497 7.03985 10.336 7.23913 10.3475 7.45116C10.3591 7.6632 10.2951 7.87198 10.1685 8.03486C10.0419 8.19774 9.86242 8.30241 9.66662 8.3275L9.5761 8.33333H8.02884C7.83165 8.3331 7.642 8.25177 7.49861 8.10596C7.35523 7.96015 7.26895 7.76087 7.25739 7.54884C7.24584 7.3368 7.30988 7.12802 7.43644 6.96514C7.563 6.80226 7.74252 6.69759 7.93832 6.6725L8.02884 6.66667H9.5761Z" fill="#086060"/>
</g>
</g>
</g>
<defs>
<clipPath id="clip0_564_820">
<rect x="0.292542" width="18.5672" height="20" rx="9.28358" fill="white"/>
</clipPath>
</defs>
</svg>
