<svg width="108" height="35" viewBox="0 0 108 35" fill="none" xmlns="http://www.w3.org/2000/svg">
<path d="M53.694 21.249C53.8553 21.249 53.9983 21.3113 54.123 21.436L55.289 22.701C54.6437 23.5003 53.848 24.1127 52.902 24.538C51.9633 24.9633 50.834 25.176 49.514 25.176C48.3333 25.176 47.27 24.9743 46.324 24.571C45.3853 24.1677 44.5823 23.6067 43.915 22.888C43.2477 22.1693 42.7343 21.3113 42.375 20.314C42.023 19.3167 41.847 18.2277 41.847 17.047C41.847 15.8517 42.0377 14.759 42.419 13.769C42.8003 12.7717 43.3357 11.9137 44.025 11.195C44.7217 10.4763 45.5503 9.919 46.511 9.523C47.4717 9.11967 48.535 8.918 49.701 8.918C50.8597 8.918 51.8863 9.10867 52.781 9.49C53.683 9.87133 54.4493 10.37 55.08 10.986L54.09 12.361C54.0313 12.449 53.9543 12.526 53.859 12.592C53.771 12.658 53.6463 12.691 53.485 12.691C53.375 12.691 53.2613 12.6617 53.144 12.603C53.0267 12.537 52.8983 12.46 52.759 12.372C52.6197 12.2767 52.4583 12.174 52.275 12.064C52.0917 11.954 51.879 11.855 51.637 11.767C51.395 11.6717 51.1127 11.5947 50.79 11.536C50.4747 11.47 50.108 11.437 49.69 11.437C48.9787 11.437 48.326 11.5653 47.732 11.822C47.1453 12.0713 46.6393 12.438 46.214 12.922C45.7887 13.3987 45.4587 13.9853 45.224 14.682C44.9893 15.3713 44.872 16.1597 44.872 17.047C44.872 17.9417 44.9967 18.7373 45.246 19.434C45.5027 20.1307 45.8473 20.7173 46.28 21.194C46.7127 21.6707 47.2223 22.0373 47.809 22.294C48.3957 22.5433 49.0263 22.668 49.701 22.668C50.1043 22.668 50.4673 22.646 50.79 22.602C51.12 22.558 51.4207 22.4883 51.692 22.393C51.9707 22.2977 52.231 22.1767 52.473 22.03C52.7223 21.876 52.968 21.689 53.21 21.469C53.2833 21.403 53.3603 21.3517 53.441 21.315C53.5217 21.271 53.606 21.249 53.694 21.249ZM65.7199 18.994L63.7839 13.703C63.6886 13.4683 63.5896 13.1897 63.4869 12.867C63.3843 12.5443 63.2816 12.196 63.1789 11.822C63.0836 12.196 62.9846 12.548 62.8819 12.878C62.7793 13.2007 62.6803 13.483 62.5849 13.725L60.6599 18.994H65.7199ZM70.9449 25H68.6569C68.4003 25 68.1913 24.9377 68.0299 24.813C67.8686 24.681 67.7476 24.5197 67.6669 24.329L66.4789 21.084H59.8899L58.7019 24.329C58.6433 24.4977 58.5296 24.6517 58.3609 24.791C58.1923 24.9303 57.9833 25 57.7339 25H55.4239L61.6829 9.094H64.6969L70.9449 25ZM81.0613 11.987C80.9733 12.141 80.878 12.2547 80.7753 12.328C80.68 12.394 80.559 12.427 80.4123 12.427C80.2583 12.427 80.0896 12.372 79.9063 12.262C79.7303 12.1447 79.5176 12.0163 79.2683 11.877C79.019 11.7377 78.7256 11.613 78.3883 11.503C78.0583 11.3857 77.666 11.327 77.2113 11.327C76.8006 11.327 76.4413 11.3783 76.1333 11.481C75.8253 11.5763 75.565 11.712 75.3523 11.888C75.147 12.064 74.993 12.2767 74.8903 12.526C74.7876 12.768 74.7363 13.0357 74.7363 13.329C74.7363 13.703 74.839 14.0147 75.0443 14.264C75.257 14.5133 75.5356 14.726 75.8803 14.902C76.225 15.078 76.6173 15.2357 77.0573 15.375C77.4973 15.5143 77.9483 15.6647 78.4103 15.826C78.8723 15.98 79.3233 16.1633 79.7633 16.376C80.2033 16.5813 80.5956 16.8453 80.9403 17.168C81.285 17.4833 81.56 17.872 81.7653 18.334C81.978 18.796 82.0843 19.357 82.0843 20.017C82.0843 20.7357 81.9596 21.4103 81.7103 22.041C81.4683 22.6643 81.109 23.2107 80.6323 23.68C80.163 24.142 79.5873 24.5087 78.9053 24.78C78.2233 25.044 77.4423 25.176 76.5623 25.176C76.0563 25.176 75.5576 25.1247 75.0663 25.022C74.575 24.9267 74.102 24.7873 73.6473 24.604C73.2 24.4207 72.7783 24.2007 72.3823 23.944C71.9863 23.6873 71.6343 23.4013 71.3263 23.086L72.1953 21.667C72.2686 21.5643 72.364 21.48 72.4813 21.414C72.5986 21.3407 72.7233 21.304 72.8553 21.304C73.0386 21.304 73.2366 21.381 73.4493 21.535C73.662 21.6817 73.915 21.8467 74.2083 22.03C74.5016 22.2133 74.8426 22.382 75.2313 22.536C75.6273 22.6827 76.1003 22.756 76.6503 22.756C77.4936 22.756 78.1463 22.558 78.6083 22.162C79.0703 21.7587 79.3013 21.183 79.3013 20.435C79.3013 20.017 79.195 19.676 78.9823 19.412C78.777 19.148 78.502 18.928 78.1573 18.752C77.8126 18.5687 77.4203 18.4147 76.9803 18.29C76.5403 18.1653 76.093 18.0297 75.6383 17.883C75.1836 17.7363 74.7363 17.5603 74.2963 17.355C73.8563 17.1497 73.464 16.882 73.1193 16.552C72.7746 16.222 72.496 15.8113 72.2833 15.32C72.078 14.8213 71.9753 14.209 71.9753 13.483C71.9753 12.9037 72.089 12.339 72.3163 11.789C72.551 11.239 72.8883 10.7513 73.3283 10.326C73.7683 9.90067 74.311 9.55967 74.9563 9.303C75.6016 9.04633 76.3423 8.918 77.1783 8.918C78.117 8.918 78.9823 9.06467 79.7743 9.358C80.5663 9.65133 81.241 10.062 81.7983 10.59L81.0613 11.987ZM98.0745 9.094V25H95.1045V18.048H87.6355V25H84.6655V9.094H87.6355V15.936H95.1045V9.094H98.0745Z" fill="black"/>
<path d="M2.91669 16.0415L7.01023 11.4375C7.55751 10.8217 8.22904 10.3287 8.98061 9.99113C9.73218 9.65355 10.5467 9.47901 11.3706 9.479H11.6667M2.91669 28.4373H10.9375L16.7709 24.0623C16.7709 24.0623 17.9521 23.2646 19.6875 21.8748C23.3334 18.9582 19.6875 14.3411 16.0417 16.7707C13.0725 18.7496 10.2084 20.4165 10.2084 20.4165" stroke="black" stroke-width="2.1875" stroke-linecap="round" stroke-linejoin="round"/>
<path d="M11.6667 19.6873V10.2082C11.6667 9.43462 11.974 8.69276 12.521 8.14578C13.0679 7.59879 13.8098 7.2915 14.5834 7.2915H29.1667C29.9402 7.2915 30.6821 7.59879 31.2291 8.14578C31.7761 8.69276 32.0834 9.43462 32.0834 10.2082V18.9582C32.0834 19.7317 31.7761 20.4736 31.2291 21.0206C30.6821 21.5675 29.9402 21.8748 29.1667 21.8748H19.6875" stroke="black" stroke-width="2.1875"/>
<path d="M28.4375 14.5978L28.4521 14.5817M15.3125 14.5978L15.3271 14.5817M21.875 17.4998C21.1015 17.4998 20.3596 17.1925 19.8126 16.6456C19.2656 16.0986 18.9583 15.3567 18.9583 14.5832C18.9583 13.8096 19.2656 13.0678 19.8126 12.5208C20.3596 11.9738 21.1015 11.6665 21.875 11.6665C22.6485 11.6665 23.3904 11.9738 23.9374 12.5208C24.4844 13.0678 24.7917 13.8096 24.7917 14.5832C24.7917 15.3567 24.4844 16.0986 23.9374 16.6456C23.3904 17.1925 22.6485 17.4998 21.875 17.4998Z" stroke="black" stroke-width="2.1875" stroke-linecap="round" stroke-linejoin="round"/>
</svg>
