<svg width="17" height="17" viewBox="0 0 17 17" fill="none" xmlns="http://www.w3.org/2000/svg">
<g id="pepicons-pop:pen">
<g id="Group">
<path id="Vector" fill-rule="evenodd" clip-rule="evenodd" d="M11.2183 1.03701L2.65199 9.60331C2.52393 9.73106 2.43996 9.89632 2.41229 10.0751L1.81304 13.98C1.79282 14.1119 1.80393 14.2466 1.84548 14.3734C1.88702 14.5002 1.95783 14.6155 2.05218 14.7098C2.14653 14.8042 2.26177 14.875 2.38856 14.9165C2.51536 14.9581 2.65015 14.9692 2.78204 14.949L6.68779 14.3497C6.86644 14.3223 7.03168 14.2386 7.15954 14.1109L15.7258 5.54456C15.8852 5.38517 15.9747 5.169 15.9747 4.94361C15.9747 4.71822 15.8852 4.50206 15.7258 4.34266L12.4193 1.03616C12.26 0.877073 12.044 0.78772 11.8188 0.78772C11.5936 0.78772 11.3777 0.877073 11.2183 1.03616V1.03701ZM3.66944 13.0934L4.05024 10.608L11.8192 2.83901L13.923 4.94361L6.15399 12.7126L3.66944 13.0934Z" fill="black"/>
<path id="Vector_2" d="M9.72568 4.45996L10.6267 3.55811L13.3824 6.31211L12.4805 7.21396L9.72568 4.45996Z" fill="black"/>
</g>
</g>
</svg>
