<svg width="30" height="30" viewBox="0 0 30 30" fill="none" xmlns="http://www.w3.org/2000/svg">
<g id="ph:house-bold">
<path id="Vector" d="M25.9641 11.8183L16.5949 2.97415L16.5762 2.95657C16.1456 2.56253 15.5831 2.34399 14.9994 2.34399C14.4157 2.34399 13.8532 2.56253 13.4227 2.95657L13.4027 2.97415L4.03594 11.8183C3.7984 12.0381 3.60877 12.3045 3.47891 12.6009C3.34905 12.8973 3.28176 13.2173 3.28125 13.5409V24.3749C3.28125 24.9965 3.52818 25.5927 3.96772 26.0322C4.40726 26.4718 5.0034 26.7187 5.625 26.7187H11.25C11.8716 26.7187 12.4677 26.4718 12.9073 26.0322C13.3468 25.5927 13.5938 24.9965 13.5938 24.3749V19.2187H16.4062V24.3749C16.4062 24.9965 16.6532 25.5927 17.0927 26.0322C17.5323 26.4718 18.1284 26.7187 18.75 26.7187H24.375C24.9966 26.7187 25.5927 26.4718 26.0323 26.0322C26.4718 25.5927 26.7188 24.9965 26.7188 24.3749V13.5409C26.7182 13.2173 26.6509 12.8973 26.5211 12.6009C26.3912 12.3045 26.2016 12.0381 25.9641 11.8183ZM23.9062 23.9062H19.2188V18.7499C19.2188 18.4421 19.1581 18.1374 19.0403 17.853C18.9226 17.5687 18.7499 17.3103 18.5323 17.0927C18.3146 16.875 18.0563 16.7024 17.7719 16.5846C17.4876 16.4668 17.1828 16.4062 16.875 16.4062H13.125C12.5034 16.4062 11.9073 16.6531 11.4677 17.0927C11.0282 17.5322 10.7812 18.1283 10.7812 18.7499V23.9062H6.09375V13.7437L15 5.33548L23.9062 13.7437V23.9062Z" fill="black"/>
</g>
</svg>
