<svg width="35" height="35" viewBox="0 0 35 35" fill="none" xmlns="http://www.w3.org/2000/svg">
<g id="quill:chat">
<g id="Group">
<path id="Vector" d="M27.3438 5.46875H7.65625C6.49593 5.46875 5.38313 5.92969 4.56266 6.75016C3.74219 7.57063 3.28125 8.68343 3.28125 9.84375V20.7812C3.28125 21.9416 3.74219 23.0544 4.56266 23.8748C5.38313 24.6953 6.49593 25.1562 7.65625 25.1562H19.6875L26.25 29.5312V25.1562H27.3438C28.5041 25.1562 29.6169 24.6953 30.4373 23.8748C31.2578 23.0544 31.7188 21.9416 31.7188 20.7812V9.84375C31.7188 8.68343 31.2578 7.57063 30.4373 6.75016C29.6169 5.92969 28.5041 5.46875 27.3438 5.46875Z" stroke="black" stroke-width="2.1875" stroke-linecap="round" stroke-linejoin="round"/>
<path id="Vector_2" d="M10.9375 16.4062C10.9375 16.6963 10.8223 16.9745 10.6171 17.1796C10.412 17.3848 10.1338 17.5 9.84375 17.5C9.55367 17.5 9.27547 17.3848 9.07035 17.1796C8.86523 16.9745 8.75 16.6963 8.75 16.4062C8.75 16.1162 8.86523 15.838 9.07035 15.6329C9.27547 15.4277 9.55367 15.3125 9.84375 15.3125C10.1338 15.3125 10.412 15.4277 10.6171 15.6329C10.8223 15.838 10.9375 16.1162 10.9375 16.4062ZM17.5 16.4062C17.5 16.6963 17.3848 16.9745 17.1796 17.1796C16.9745 17.3848 16.6963 17.5 16.4062 17.5C16.1162 17.5 15.838 17.3848 15.6329 17.1796C15.4277 16.9745 15.3125 16.6963 15.3125 16.4062C15.3125 16.1162 15.4277 15.838 15.6329 15.6329C15.838 15.4277 16.1162 15.3125 16.4062 15.3125C16.6963 15.3125 16.9745 15.4277 17.1796 15.6329C17.3848 15.838 17.5 16.1162 17.5 16.4062ZM24.0625 16.4062C24.0625 16.6963 23.9473 16.9745 23.7421 17.1796C23.537 17.3848 23.2588 17.5 22.9688 17.5C22.6787 17.5 22.4005 17.3848 22.1954 17.1796C21.9902 16.9745 21.875 16.6963 21.875 16.4062C21.875 16.1162 21.9902 15.838 22.1954 15.6329C22.4005 15.4277 22.6787 15.3125 22.9688 15.3125C23.2588 15.3125 23.537 15.4277 23.7421 15.6329C23.9473 15.838 24.0625 16.1162 24.0625 16.4062Z" stroke="black" stroke-width="2.1875" stroke-linecap="round" stroke-linejoin="round"/>
</g>
</g>
</svg>
