<svg width="35" height="35" viewBox="0 0 35 35" fill="none" xmlns="http://www.w3.org/2000/svg">
<g id="tabler:home">
<g id="Group">
<path id="Vector" d="M7.29167 17.5H4.375L17.5 4.375L30.625 17.5H27.7083M7.29167 17.5V27.7083C7.29167 28.4819 7.59896 29.2237 8.14594 29.7707C8.69292 30.3177 9.43479 30.625 10.2083 30.625H24.7917C25.5652 30.625 26.3071 30.3177 26.8541 29.7707C27.401 29.2237 27.7083 28.4819 27.7083 27.7083V17.5" stroke="black" stroke-width="2" stroke-linecap="round" stroke-linejoin="round"/>
<path id="Vector_2" d="M13.125 30.625V21.875C13.125 21.1015 13.4323 20.3596 13.9793 19.8126C14.5263 19.2657 15.2681 18.9584 16.0417 18.9584H18.9583C19.7319 18.9584 20.4737 19.2657 21.0207 19.8126C21.5677 20.3596 21.875 21.1015 21.875 21.875V30.625" stroke="black" stroke-width="2" stroke-linecap="round" stroke-linejoin="round"/>
</g>
</g>
</svg>
