<svg width="23" height="23" viewBox="0 0 23 23" fill="none" xmlns="http://www.w3.org/2000/svg">
<g id="tabler:dots">
<path id="Vector" d="M3.83334 11.5C3.83334 11.7542 3.93431 11.9979 4.11403 12.1777C4.29376 12.3574 4.53751 12.4584 4.79168 12.4584C5.04584 12.4584 5.2896 12.3574 5.46932 12.1777C5.64904 11.9979 5.75001 11.7542 5.75001 11.5C5.75001 11.2459 5.64904 11.0021 5.46932 10.8224C5.2896 10.6427 5.04584 10.5417 4.79168 10.5417C4.53751 10.5417 4.29376 10.6427 4.11403 10.8224C3.93431 11.0021 3.83334 11.2459 3.83334 11.5ZM10.5417 11.5C10.5417 11.7542 10.6426 11.9979 10.8224 12.1777C11.0021 12.3574 11.2458 12.4584 11.5 12.4584C11.7542 12.4584 11.9979 12.3574 12.1777 12.1777C12.3574 11.9979 12.4583 11.7542 12.4583 11.5C12.4583 11.2459 12.3574 11.0021 12.1777 10.8224C11.9979 10.6427 11.7542 10.5417 11.5 10.5417C11.2458 10.5417 11.0021 10.6427 10.8224 10.8224C10.6426 11.0021 10.5417 11.2459 10.5417 11.5ZM17.25 11.5C17.25 11.7542 17.351 11.9979 17.5307 12.1777C17.7104 12.3574 17.9542 12.4584 18.2083 12.4584C18.4625 12.4584 18.7063 12.3574 18.886 12.1777C19.0657 11.9979 19.1667 11.7542 19.1667 11.5C19.1667 11.2459 19.0657 11.0021 18.886 10.8224C18.7063 10.6427 18.4625 10.5417 18.2083 10.5417C17.9542 10.5417 17.7104 10.6427 17.5307 10.8224C17.351 11.0021 17.25 11.2459 17.25 11.5Z" stroke="black" stroke-width="2.91667" stroke-linecap="round" stroke-linejoin="round"/>
</g>
</svg>
